<svg width="20" height="20" viewBox="0 0 20 20" fill="none" xmlns="http://www.w3.org/2000/svg">
<g id="mdi:arrow-down-drop-circle-outline">
<path id="Vector" d="M9.99996 1.66675C8.90561 1.66675 7.82198 1.8823 6.81093 2.30109C5.79988 2.71987 4.88122 3.3337 4.1074 4.10752C2.5446 5.67033 1.66663 7.78994 1.66663 10.0001C1.66663 12.2102 2.5446 14.3298 4.1074 15.8926C4.88122 16.6665 5.79988 17.2803 6.81093 17.6991C7.82198 18.1179 8.90561 18.3334 9.99996 18.3334C12.2101 18.3334 14.3297 17.4554 15.8925 15.8926C17.4553 14.3298 18.3333 12.2102 18.3333 10.0001C18.3333 8.90573 18.1177 7.8221 17.699 6.81105C17.2802 5.80001 16.6663 4.88135 15.8925 4.10752C15.1187 3.3337 14.2 2.71987 13.189 2.30109C12.1779 1.8823 11.0943 1.66675 9.99996 1.66675ZM9.99996 3.33341C11.7681 3.33341 13.4638 4.03579 14.714 5.28604C15.9642 6.53628 16.6666 8.23197 16.6666 10.0001C16.6666 11.7682 15.9642 13.4639 14.714 14.7141C13.4638 15.9644 11.7681 16.6667 9.99996 16.6667C8.23185 16.6667 6.53616 15.9644 5.28591 14.7141C4.03567 13.4639 3.33329 11.7682 3.33329 10.0001C3.33329 8.23197 4.03567 6.53628 5.28591 5.28604C6.53616 4.03579 8.23185 3.33341 9.99996 3.33341ZM5.83329 8.33342L9.99996 12.5001L14.1666 8.33342H5.83329Z" fill="white"/>
</g>
</svg>
